<svg xmlns="http://www.w3.org/2000/svg" viewBox="0 0 37 37" width="37" height="37">
	<style>
		tspan { white-space:pre }
		.shp0 { fill: #ffffff } 
	</style>
	<g >
		<g >
			<path fill-rule="evenodd" class="shp0" d="M34.47 8.2L34.47 32.2C34.47 34.54 32.57 36.45 30.22 36.45L6.22 36.45C3.88 36.45 1.97 34.54 1.97 32.2L1.97 8.2C1.97 5.85 3.88 3.95 6.22 3.95L7.63 3.95L7.63 2.75C7.63 1.23 8.82 0 10.3 0C11.77 0 12.97 1.23 12.97 2.75L12.97 3.95L15.71 3.95L15.71 2.75C15.71 1.23 16.9 0 18.38 0C19.85 0 21.05 1.23 21.05 2.75L21.05 3.95L23.79 3.95L23.79 2.75C23.79 1.23 24.98 0 26.46 0C27.93 0 29.13 1.23 29.13 2.75L29.13 3.95L30.22 3.95C32.57 3.95 34.47 5.86 34.47 8.2ZM25.29 7.65C25.29 8.34 25.81 8.9 26.46 8.9C27.1 8.9 27.63 8.33 27.63 7.65L27.63 2.75C27.63 2.06 27.1 1.5 26.46 1.5C25.81 1.5 25.29 2.06 25.29 2.75L25.29 7.65ZM17.21 2.75L17.21 7.65C17.21 8.34 17.73 8.9 18.38 8.9C19.02 8.9 19.55 8.33 19.55 7.65L19.55 2.75C19.55 2.06 19.02 1.5 18.38 1.5C17.73 1.5 17.21 2.06 17.21 2.75ZM9.13 7.65C9.13 8.34 9.65 8.9 10.29 8.9C10.94 8.9 11.46 8.33 11.46 7.65L11.46 2.75C11.46 2.06 10.94 1.5 10.29 1.5C9.65 1.5 9.13 2.06 9.13 2.75L9.13 7.65ZM31.97 10.2L4.47 10.2L4.47 32.2C4.47 33.16 5.26 33.95 6.22 33.95L30.22 33.95C31.19 33.95 31.97 33.16 31.97 32.2L31.97 10.2Z" />
			<path class="shp0" d="M6.72 14.63L11.32 14.63L11.32 18.71L6.72 18.71L6.72 14.63Z" />
			<path class="shp0" d="M12.86 14.63L17.45 14.63L17.45 18.71L12.86 18.71L12.86 14.63Z" />
			<path class="shp0" d="M19 14.63L23.59 14.63L23.59 18.71L19 18.71L19 14.63Z" />
			<path class="shp0" d="M25.13 14.63L29.72 14.63L29.72 18.71L25.13 18.71L25.13 14.63Z" />
			<path class="shp0" d="M6.72 20.08L11.32 20.08L11.32 24.17L6.72 24.17L6.72 20.08Z" />
			<path class="shp0" d="M12.86 20.08L17.45 20.08L17.45 24.17L12.86 24.17L12.86 20.08Z" />
			<path class="shp0" d="M19 20.08L23.59 20.08L23.59 24.17L19 24.17L19 20.08Z" />
			<path class="shp0" d="M25.13 20.08L29.72 20.08L29.72 24.17L25.13 24.17L25.13 20.08Z" />
			<path class="shp0" d="M6.72 25.54L11.32 25.54L11.32 29.63L6.72 29.63L6.72 25.54Z" />
			<path class="shp0" d="M12.86 25.54L17.45 25.54L17.45 29.63L12.86 29.63L12.86 25.54Z" />
			<path class="shp0" d="M19 25.54L23.59 25.54L23.59 29.63L19 29.63L19 25.54Z" />
			<path class="shp0" d="M25.13 25.54L29.72 25.54L29.72 29.63L25.13 29.63L25.13 25.54Z" />
		</g>
	</g>
	<g >
	</g>
	<g >
	</g>
	<g >
	</g>
	<g >
	</g>
	<g >
	</g>
	<g >
	</g>
	<g >
	</g>
	<g >
	</g>
	<g >
	</g>
	<g >
	</g>
	<g >
	</g>
	<g >
	</g>
	<g >
	</g>
	<g >
	</g>
	<g >
	</g>
</svg>