<svg xmlns="http://www.w3.org/2000/svg" width="40" height="40" viewBox="0 0 40 40">
  <g id="Group_119" data-name="Group 119" transform="translate(-1455 -3031)">
    <circle id="Ellipse_29" data-name="Ellipse 29" cx="20" cy="20" r="20" transform="translate(1455 3031)" fill="#0e76a8"/>
    <g id="web" transform="translate(1460 3037)">
      <g id="Camada_2" data-name="Camada 2" transform="translate(1 0)">
        <g id="Your_Icon" data-name="Your Icon">
          <path id="Path_58" data-name="Path 58" d="M14.009,0A14,14,0,1,0,28,14.009,14.021,14.021,0,0,0,14.009,0ZM3.642,6.513A12.754,12.754,0,0,1,9.486,2.04c.05-.019.1-.028.156-.044A22.843,22.843,0,0,0,8.256,4.008,13.892,13.892,0,0,0,7.094,6.522a.435.435,0,0,1-.481.331c-.937-.012-1.874,0-2.811-.006-.1,0-.225.037-.278-.072s.062-.184.119-.262ZM1.25,12.91A12.868,12.868,0,0,1,2.227,9C2.765,7.79,2.5,8.04,3.77,8.018c.812-.016,1.624-.006,2.433,0,.375,0,.4.037.312.4a20.3,20.3,0,0,0-.609,4.4c-.006.575-.069.625-.631.625H1.743c-.487,0-.543-.05-.494-.531Zm1.259,6.713A12.932,12.932,0,0,1,1.25,15.084c-.044-.412.022-.475.447-.475.618,0,1.237,0,1.855,0s1.212,0,1.818,0c.447,0,.516.044.528.515.022.581.069,1.162.134,1.74A21.5,21.5,0,0,0,6.5,19.5c.109.444.084.465-.375.465-1.018,0-2.037-.006-3.055.006a.543.543,0,0,1-.559-.347Zm5.513,5.685A12.934,12.934,0,0,1,3.8,21.715c-.115-.153-.359-.325-.253-.515.091-.159.362-.062.55-.066.825-.006,1.649.006,2.471-.006a.5.5,0,0,1,.55.394,12.658,12.658,0,0,0,2.121,3.9c.147.184.319.353.478.528a5.316,5.316,0,0,1-1.69-.64ZM7.6,14.609c1.784,0,3.567,0,5.354,0,.422,0,.447.022.447.447v4.46c0,.425-.025.447-.45.447-.778,0-1.556,0-2.333,0-.8,0-1.6-.006-2.4.006-.278,0-.393-.1-.465-.378a21.578,21.578,0,0,1-.662-4.467c-.025-.509,0-.515.512-.515Zm5.8,9.358c0,.787,0,1.577,0,2.368,0,.406-.038.428-.444.315a5.577,5.577,0,0,1-2.905-2.133,12.49,12.49,0,0,1-1.7-3.045c-.094-.231-.056-.34.219-.34q2.249,0,4.5,0c.259,0,.331.128.331.362-.006.825,0,1.649,0,2.474Zm0-10.87c0,.278-.134.347-.384.347-.925-.009-1.852,0-2.777,0s-1.831-.009-2.743,0c-.312.006-.434-.1-.419-.415a21.848,21.848,0,0,1,.7-4.735.334.334,0,0,1,.369-.278q2.455,0,4.9,0c.25,0,.347.1.347.347q-.009,2.366,0,4.735Zm-.425-6.244c-1.449-.012-2.9-.009-4.351,0-.281,0-.375-.059-.253-.353a10.55,10.55,0,0,1,2.7-4.079,4.665,4.665,0,0,1,1.865-1.05c.415-.116.462-.078.465.344,0,.787,0,1.574,0,2.365,0,.775-.009,1.552.006,2.33.006.315-.087.45-.428.447Zm12.507,1.49a13.144,13.144,0,0,1,1.281,4.8c.022.275-.162.291-.356.291-.65,0-1.3,0-1.952,0-.631,0-1.259-.009-1.887,0-.315.006-.447-.1-.456-.434a21.5,21.5,0,0,0-.593-4.435c-.128-.537-.116-.559.45-.559.993,0,1.99.006,2.983,0a.514.514,0,0,1,.531.331ZM20.141,2.786a13.336,13.336,0,0,1,3.417,2.721,10.967,10.967,0,0,1,.871,1.1c.128.175.066.241-.131.237-1,0-1.99,0-2.986,0-.247,0-.328-.15-.4-.344A14.439,14.439,0,0,0,19.276,3.27c-.29-.419-.618-.812-.94-1.224a7.342,7.342,0,0,1,1.805.74Zm-5.579,12.2c0-.312.134-.387.415-.387.937.012,1.877.006,2.814.006s1.855,0,2.78,0c.247,0,.394.056.372.35a26.87,26.87,0,0,1-.475,3.736c-.069.325-.159.643-.228.968a.339.339,0,0,1-.381.306q-2.469-.009-4.941,0c-.275,0-.356-.119-.356-.375.006-1.534.009-3.067,0-4.6Zm0-2V8.465c0-.4.05-.447.462-.45,1.568,0,3.133.006,4.7,0a.449.449,0,0,1,.522.4,20.569,20.569,0,0,1,.637,4.226c.028.8.041.8-.781.8H15.031c-.415,0-.462-.047-.465-.447Zm0-8.924c0-.787,0-1.577,0-2.365,0-.419.062-.469.469-.35a5.348,5.348,0,0,1,2.558,1.7,11.763,11.763,0,0,1,2.043,3.467c.116.29.025.328-.234.325-1.471-.006-2.945-.009-4.42,0-.309,0-.425-.1-.422-.419.016-.787.006-1.577.006-2.365Zm2.424,21.475a5.191,5.191,0,0,1-2.043,1.143c-.3.091-.387-.012-.384-.306.009-.8,0-1.6,0-2.4s.009-1.6,0-2.4c-.006-.315.094-.459.431-.456,1.449.009,2.9,0,4.351.006.356,0,.4.075.284.375a10.58,10.58,0,0,1-2.639,4.036Zm7.4-4.073a12.683,12.683,0,0,1-4.4,3.836,9.033,9.033,0,0,1-1.765.753,14.242,14.242,0,0,0,1.74-2.43,14.9,14.9,0,0,0,.953-2.158.439.439,0,0,1,.475-.344c.95.009,1.9,0,2.846.006.1,0,.228-.041.278.075s-.069.181-.125.262Zm2.361-6.5A12.621,12.621,0,0,1,25.5,19.6a.545.545,0,0,1-.578.365c-.512-.019-1.028-.006-1.543-.006-.537,0-1.075,0-1.609,0-.262,0-.35-.1-.287-.359a20.424,20.424,0,0,0,.531-3.136c.044-.5.087-1,.1-1.5.006-.262.1-.369.365-.365q1.973.009,3.942,0c.262,0,.347.069.325.362Z" transform="translate(0 0)" fill="#fff"/>
        </g>
      </g>
    </g>
  </g>
</svg>
