<svg xmlns="http://www.w3.org/2000/svg" width="20" height="9.8" viewBox="0 0 20 9.8">
  <g id="noun_Eye_3208332" transform="translate(-5 -17.75)">
    <path id="Path_96" data-name="Path 96" d="M15,27.55c5.413,0,9.709-4.435,9.889-4.624a.4.4,0,0,0,0-.552c-.18-.189-4.477-4.624-9.889-4.624s-9.709,4.435-9.889,4.624a.4.4,0,0,0,0,.553C5.291,23.115,9.591,27.55,15,27.55Zm9.027-4.9a17,17,0,0,1-5.562,3.461,4.892,4.892,0,0,0,0-6.921A17.056,17.056,0,0,1,24.027,22.65ZM15,18.55a4.1,4.1,0,1,1-4.1,4.1A4.1,4.1,0,0,1,15,18.55Zm-3.467.641a4.891,4.891,0,0,0,0,6.917A17.075,17.075,0,0,1,5.974,22.65,17.076,17.076,0,0,1,11.533,19.191Z" fill="#0c9"/>
    <path id="Path_97" data-name="Path 97" d="M25.65,28.55a2.9,2.9,0,0,0,0-5.8.4.4,0,1,0,0,.8,2.1,2.1,0,1,1-2.1,2.1.4.4,0,1,0-.8,0A2.9,2.9,0,0,0,25.65,28.55Z" transform="translate(-10.65 -3)" fill="#0c9"/>
  </g>
</svg>
