<svg xmlns="http://www.w3.org/2000/svg" xmlns:xlink="http://www.w3.org/1999/xlink" width="22.457" height="21.998" viewBox="0 0 22.457 21.998">
  <defs>
    <clipPath id="clip-path">
      <rect id="Rectangle_14" data-name="Rectangle 14" width="22.457" height="21.998" fill="none"/>
    </clipPath>
  </defs>
  <g id="Group_23" data-name="Group 23" clip-path="url(#clip-path)">
    <path id="Path_82" data-name="Path 82" d="M4.813,1.267a1.342,1.342,0,0,0-.456,1V12.985l2.777-2.726V2.272a1.347,1.347,0,0,0-.407-.963c-.015-.015-.034-.027-.05-.041h.418a.454.454,0,0,0,.443.358h.653a.455.455,0,0,0,.443-.358h.417a1.342,1.342,0,0,0-.458,1V8.828L11.37,6.1V2.272a1.329,1.329,0,0,0-.407-.963,1.379,1.379,0,0,0-.981-.4,1.327,1.327,0,0,0-.16.016A.453.453,0,0,0,9.844.813.459.459,0,0,0,9.381.358H8.634A.454.454,0,0,0,8.191,0H7.537a.454.454,0,0,0-.443.358H5.884a.457.457,0,0,0-.2.048.461.461,0,0,0-.2-.048H4.275A.454.454,0,0,0,3.832,0H3.178a.454.454,0,0,0-.443.358H1.988a.459.459,0,0,0-.463.454.433.433,0,0,0,.023.112A1.314,1.314,0,0,0,1.389.909,1.376,1.376,0,0,0,0,2.272V21.543A.459.459,0,0,0,.463,22H2.315a.459.459,0,0,0,.463-.454V2.272a1.345,1.345,0,0,0-.457-1h.415a.455.455,0,0,0,.443.358h.653a.454.454,0,0,0,.443-.358Z" fill="#444"/>
    <path id="Path_83" data-name="Path 83" d="M22.186.946,21.859.625a.939.939,0,0,0-1.31,0l-5.191,5.1h0l-1.893,0a.925.925,0,0,0-.657.264l-8.24,8.087a.933.933,0,0,0-.208.313.9.9,0,0,0,0,.659v6.506A.459.459,0,0,0,4.82,22H6.672a.459.459,0,0,0,.463-.454V17.869l.051.05a.94.94,0,0,0,1.31,0l.1-.1v3.721A.459.459,0,0,0,9.056,22h1.852a.458.458,0,0,0,.463-.454V15.1l5.36-5.261A.906.906,0,0,0,17,9.186c0-.046-.015-1.976-.015-1.854v0l5.2-5.1a.9.9,0,0,0,0-1.285" fill="#444"/>
    <path id="Path_84" data-name="Path 84" d="M15.783,14.046a2.726,2.726,0,1,1-2.777,2.726,2.752,2.752,0,0,1,2.777-2.726" fill="#444"/>
    <path id="Path_85" data-name="Path 85" d="M4.813,1.267a1.342,1.342,0,0,0-.456,1V12.985l2.777-2.726V2.272a1.347,1.347,0,0,0-.407-.963c-.015-.015-.034-.027-.05-.041h.418a.454.454,0,0,0,.443.358h.653a.455.455,0,0,0,.443-.358h.417a1.342,1.342,0,0,0-.458,1V8.828L11.37,6.1V2.272a1.329,1.329,0,0,0-.407-.963,1.379,1.379,0,0,0-.981-.4,1.327,1.327,0,0,0-.16.016A.453.453,0,0,0,9.844.813.459.459,0,0,0,9.381.358H8.634A.454.454,0,0,0,8.191,0H7.537a.454.454,0,0,0-.443.358H5.884a.457.457,0,0,0-.2.048.461.461,0,0,0-.2-.048H4.275A.454.454,0,0,0,3.832,0H3.178a.454.454,0,0,0-.443.358H1.988a.459.459,0,0,0-.463.454.433.433,0,0,0,.023.112A1.314,1.314,0,0,0,1.389.909,1.376,1.376,0,0,0,0,2.272V21.543A.459.459,0,0,0,.463,22H2.315a.459.459,0,0,0,.463-.454V2.272a1.345,1.345,0,0,0-.457-1h.415a.455.455,0,0,0,.443.358h.653a.454.454,0,0,0,.443-.358Z" fill="#444"/>
    <path id="Path_86" data-name="Path 86" d="M22.186.946,21.859.625a.939.939,0,0,0-1.31,0l-5.191,5.1h0l-1.893,0a.925.925,0,0,0-.657.264l-8.24,8.087a.933.933,0,0,0-.208.313.9.9,0,0,0,0,.659v6.506A.459.459,0,0,0,4.82,22H6.672a.459.459,0,0,0,.463-.454V17.869l.051.05a.94.94,0,0,0,1.31,0l.1-.1v3.721A.459.459,0,0,0,9.056,22h1.852a.458.458,0,0,0,.463-.454V15.1l5.36-5.261A.906.906,0,0,0,17,9.186c0-.046-.015-1.976-.015-1.854v0l5.2-5.1a.9.9,0,0,0,0-1.285" fill="#444"/>
    <path id="Path_87" data-name="Path 87" d="M15.783,14.046a2.726,2.726,0,1,1-2.777,2.726,2.752,2.752,0,0,1,2.777-2.726" fill="#444"/>
  </g>
</svg>
