<svg xmlns="http://www.w3.org/2000/svg" viewBox="0 0 12 25" width="12" height="25">
	<style>
		tspan { white-space:pre }
		.shp0 { fill: #00cc99 } 
	</style>
	<path id="Path_88" class="shp0" d="M11.99 12.84C11.99 12.76 11.97 12.69 11.95 12.62C11.93 12.54 11.91 12.47 11.88 12.4C11.85 12.33 11.81 12.27 11.77 12.2C11.73 12.14 11.69 12.08 11.64 12.02L2.72 1.61C2.48 1.26 2.11 1.03 1.69 0.97C1.26 0.91 0.84 1.04 0.52 1.31C0.19 1.59 0.01 1.99 0 2.41C-0.01 2.84 0.16 3.24 0.47 3.53L8.57 12.98L5.52 16.54L0.47 22.43C0.16 22.71 -0.01 23.12 0 23.55C0.01 23.97 0.2 24.37 0.52 24.65C0.84 24.92 1.27 25.05 1.69 24.99C2.11 24.93 2.48 24.7 2.72 24.34L11.64 13.94C11.7 13.86 11.76 13.78 11.81 13.7C11.86 13.61 11.9 13.52 11.93 13.43C11.96 13.33 11.98 13.23 11.99 13.14C12 13.04 12 12.94 12 12.84L11.99 12.84Z" />
</svg>