<svg id="Group_82" data-name="Group 82" xmlns="http://www.w3.org/2000/svg" width="18" height="15" viewBox="0 0 18 15">
  <path id="Path_100" data-name="Path 100" d="M18.275,16.437V4.75a.816.816,0,0,0-1.627,0V16.441l-.339-.313a.861.861,0,0,0-1.151,0,.707.707,0,0,0,0,1.06l1.726,1.591a.851.851,0,0,0,.644.218.843.843,0,0,0,.506-.218l1.726-1.591a.707.707,0,0,0,0-1.06.861.861,0,0,0-1.151,0ZM2,4.75A.783.783,0,0,1,2.81,4H13.4a.78.78,0,0,1,.81.75.783.783,0,0,1-.81.75H2.81A.78.78,0,0,1,2,4.75Zm0,4.5a.783.783,0,0,1,.813-.75h8.954a.752.752,0,1,1,0,1.5H2.813A.781.781,0,0,1,2,9.249Zm0,4.5A.781.781,0,0,1,2.81,13h7.331a.752.752,0,1,1,0,1.5H2.81A.78.78,0,0,1,2,13.749Zm0,4.5a.783.783,0,0,1,.811-.75H7.7a.752.752,0,1,1,0,1.5H2.811A.781.781,0,0,1,2,18.248Z" transform="translate(-2 -4)" fill-rule="evenodd"/>
</svg>
