<svg xmlns="http://www.w3.org/2000/svg" width="34.924" height="26" viewBox="0 0 34.924 26">
  <g id="Group_58" data-name="Group 58" transform="translate(946.5 -965.674)">
    <path id="Path_94" data-name="Path 94" d="M-879.326,972.852a8.048,8.048,0,0,0-7.567-7.168,8.028,8.028,0,0,0-8.407,8.05,8.083,8.083,0,0,0,5.008,7.463l-4.5,9.264a.854.854,0,0,0,.731,1.213h3.071a.78.78,0,0,0,.658-.331l9.65-13.087A8.339,8.339,0,0,0-879.326,972.852Z" transform="translate(-32.287 0)"/>
    <path id="Path_95" data-name="Path 95" d="M-938.093,965.684a8.028,8.028,0,0,0-8.408,8.05,8.083,8.083,0,0,0,5.009,7.463l-4.5,9.264a.854.854,0,0,0,.731,1.213h3.071a.781.781,0,0,0,.658-.331l9.65-13.087a7.951,7.951,0,0,0,1.316-5.367A8.043,8.043,0,0,0-938.093,965.684Z" transform="translate(0 0)"/>
  </g>
</svg>
